<svg width="109" height="29" viewBox="0 0 109 29" fill="none" xmlns="http://www.w3.org/2000/svg">
<path fill-rule="evenodd" clip-rule="evenodd" d="M107.697 23.2V28H99.2972C98.3906 28 97.6506 27.7067 97.0772 27.12C96.5039 26.5333 96.2172 25.7867 96.2172 24.88V12.96H90.3372V8.16H96.2172V0H101.257V8.16H108.417V12.96H101.257V22C101.257 22.8 101.617 23.2 102.337 23.2H107.697ZM9.7201 28.56C12.3334 28.56 14.3601 27.9733 15.8001 26.8C17.2401 25.6267 17.9601 24.0533 17.9601 22.08V21.84C17.9601 20.0533 17.3201 18.66 16.0401 17.66C14.7601 16.66 13.1068 16.0533 11.0801 15.84C9.3201 15.6533 8.10676 15.42 7.4401 15.14C6.77343 14.86 6.4401 14.4 6.4401 13.76C6.4401 13.3067 6.65343 12.9267 7.0801 12.62C7.50676 12.3133 8.14676 12.16 9.0001 12.16C9.93343 12.16 10.6934 12.3667 11.2801 12.78C11.8668 13.1933 12.2801 13.76 12.5201 14.48L17.0801 12.64C16.8668 12.08 16.5601 11.5 16.1601 10.9C15.7601 10.3 15.2401 9.75333 14.6001 9.26C13.9601 8.76667 13.1801 8.36667 12.2601 8.06C11.3401 7.75333 10.2534 7.6 9.0001 7.6C8.0401 7.6 7.10676 7.73333 6.2001 8C5.29343 8.26667 4.49343 8.66 3.8001 9.18C3.10676 9.7 2.54676 10.3333 2.1201 11.08C1.69343 11.8267 1.4801 12.6933 1.4801 13.68V13.92C1.4801 15.8133 2.1401 17.2467 3.4601 18.22C4.7801 19.1933 6.5601 19.7733 8.8001 19.96C9.62676 20.04 10.3134 20.1467 10.8601 20.28C11.4068 20.4133 11.8401 20.58 12.1601 20.78C12.4801 20.98 12.7001 21.1933 12.8201 21.42C12.9401 21.6467 13.0001 21.8933 13.0001 22.16C13.0001 22.6133 12.7668 23.0333 12.3001 23.42C11.8334 23.8067 10.9734 24 9.7201 24C8.30676 24 7.2601 23.68 6.5801 23.04C5.9001 22.4 5.45343 21.6533 5.2401 20.8L0.600098 22.32C0.733431 23.0133 0.993431 23.7267 1.3801 24.46C1.76676 25.1933 2.3201 25.86 3.0401 26.46C3.7601 27.06 4.66676 27.56 5.7601 27.96C6.85343 28.36 8.17343 28.56 9.7201 28.56ZM32.1744 28.56C35.001 28.56 37.2611 27.84 38.9544 26.4C40.6477 24.96 41.7211 23.0667 42.1744 20.72L37.2144 19.48C36.9744 20.7867 36.4477 21.8267 35.6344 22.6C34.821 23.3733 33.641 23.76 32.0944 23.76C31.3744 23.76 30.6944 23.6467 30.0544 23.42C29.4144 23.1933 28.8544 22.8533 28.3744 22.4C27.8944 21.9467 27.5144 21.38 27.2344 20.7C26.9544 20.02 26.8144 19.24 26.8144 18.36V18.12C26.8144 17.24 26.9544 16.4467 27.2344 15.74C27.5144 15.0333 27.8944 14.4333 28.3744 13.94C28.8544 13.4467 29.4144 13.0667 30.0544 12.8C30.6944 12.5333 31.3744 12.4 32.0944 12.4C33.641 12.4 34.841 12.8267 35.6944 13.68C36.5477 14.5333 37.0544 15.5467 37.2144 16.72L42.1744 15.44C41.7211 13.0933 40.6344 11.2 38.9144 9.76C37.1944 8.32 34.9477 7.6 32.1744 7.6C30.7344 7.6 29.3811 7.84 28.1144 8.32C26.8477 8.8 25.7411 9.49333 24.7944 10.4C23.8477 11.3067 23.1077 12.4 22.5744 13.68C22.041 14.96 21.7744 16.4 21.7744 18V18.48C21.7744 20.08 22.041 21.5067 22.5744 22.76C23.1077 24.0133 23.8411 25.0667 24.7744 25.92C25.7077 26.7733 26.8077 27.4267 28.0744 27.88C29.3411 28.3333 30.7077 28.56 32.1744 28.56ZM58.5287 27.88C57.2887 28.3333 55.9887 28.56 54.6287 28.56C53.2687 28.56 51.9687 28.3333 50.7287 27.88C49.4887 27.4267 48.3887 26.7667 47.4287 25.9C46.4687 25.0333 45.7087 23.9667 45.1487 22.7C44.5887 21.4333 44.3087 19.9733 44.3087 18.32V17.84C44.3087 16.2133 44.5887 14.7667 45.1487 13.5C45.7087 12.2333 46.4687 11.16 47.4287 10.28C48.3887 9.4 49.4887 8.73333 50.7287 8.28C51.9687 7.82667 53.2687 7.6 54.6287 7.6C55.9887 7.6 57.2887 7.82667 58.5287 8.28C59.7687 8.73333 60.8687 9.4 61.8287 10.28C62.7887 11.16 63.5487 12.2333 64.1087 13.5C64.6687 14.7667 64.9487 16.2133 64.9487 17.84V18.32C64.9487 19.9733 64.6687 21.4333 64.1087 22.7C63.5487 23.9667 62.7887 25.0333 61.8287 25.9C60.8687 26.7667 59.7687 27.4267 58.5287 27.88ZM54.6287 23.76C53.9087 23.76 53.2287 23.64 52.5887 23.4C51.9487 23.16 51.3887 22.8133 50.9087 22.36C50.4287 21.9067 50.0487 21.3533 49.7687 20.7C49.4887 20.0467 49.3487 19.3067 49.3487 18.48V17.68C49.3487 16.8533 49.4887 16.1133 49.7687 15.46C50.0487 14.8067 50.4287 14.2533 50.9087 13.8C51.3887 13.3467 51.9487 13 52.5887 12.76C53.2287 12.52 53.9087 12.4 54.6287 12.4C55.3487 12.4 56.0287 12.52 56.6687 12.76C57.3087 13 57.8687 13.3467 58.3487 13.8C58.8287 14.2533 59.2087 14.8067 59.4887 15.46C59.7687 16.1133 59.9087 16.8533 59.9087 17.68V18.48C59.9087 19.3067 59.7687 20.0467 59.4887 20.7C59.2087 21.3533 58.8287 21.9067 58.3487 22.36C57.8687 22.8133 57.3087 23.16 56.6687 23.4C56.0287 23.64 55.3487 23.76 54.6287 23.76ZM81.223 27.88C79.983 28.3333 78.683 28.56 77.323 28.56C75.963 28.56 74.663 28.3333 73.423 27.88C72.183 27.4267 71.083 26.7667 70.123 25.9C69.163 25.0333 68.403 23.9667 67.8429 22.7C67.283 21.4333 67.003 19.9733 67.003 18.32V17.84C67.003 16.2133 67.283 14.7667 67.8429 13.5C68.403 12.2333 69.163 11.16 70.123 10.28C71.083 9.4 72.183 8.73333 73.423 8.28C74.663 7.82667 75.963 7.6 77.323 7.6C78.683 7.6 79.983 7.82667 81.223 8.28C82.463 8.73333 83.563 9.4 84.5229 10.28C85.483 11.16 86.243 12.2333 86.8029 13.5C87.363 14.7667 87.643 16.2133 87.643 17.84V18.32C87.643 19.9733 87.363 21.4333 86.8029 22.7C86.243 23.9667 85.483 25.0333 84.5229 25.9C83.563 26.7667 82.463 27.4267 81.223 27.88ZM77.323 23.76C76.603 23.76 75.923 23.64 75.283 23.4C74.643 23.16 74.083 22.8133 73.603 22.36C73.123 21.9067 72.743 21.3533 72.463 20.7C72.183 20.0467 72.043 19.3067 72.043 18.48V17.68C72.043 16.8533 72.183 16.1133 72.463 15.46C72.743 14.8067 73.123 14.2533 73.603 13.8C74.083 13.3467 74.643 13 75.283 12.76C75.923 12.52 76.603 12.4 77.323 12.4C78.043 12.4 78.723 12.52 79.363 12.76C80.003 13 80.563 13.3467 81.043 13.8C81.523 14.2533 81.903 14.8067 82.183 15.46C82.463 16.1133 82.603 16.8533 82.603 17.68V18.48C82.603 19.3067 82.463 20.0467 82.183 20.7C81.903 21.3533 81.523 21.9067 81.043 22.36C80.563 22.8133 80.003 23.16 79.363 23.4C78.723 23.64 78.043 23.76 77.323 23.76Z" fill="white"/>
</svg>
